<svg width="384" height="384" viewBox="0 0 384 384" fill="none" xmlns="http://www.w3.org/2000/svg">
<path fill-rule="evenodd" clip-rule="evenodd" d="M191.606 383.884C157.336 383.884 125.178 375.437 95.4191 358.35C65.9486 341.263 42.6218 317.936 25.6307 288.465C10.6555 262.643 2.39988 234.996 0.47998 205.718H84.5717C86.0116 223.765 90.7154 241.524 100.891 256.787C111.45 272.626 125.082 285.489 142.361 293.745C157.912 301.137 174.423 305.36 191.606 305.36C208.981 305.36 225.589 301.041 241.332 293.745C258.707 285.585 272.434 272.722 283.09 256.787C295.857 237.684 299.985 214.837 299.985 192.278C299.985 169.623 295.761 146.681 283.09 127.386C272.53 111.258 258.803 98.299 241.332 90.0434C228.948 84.2837 216.085 80.4439 202.646 79.004V0.192017C233.172 1.82393 261.875 9.98352 288.561 25.4387C318.128 42.5259 341.455 65.8527 358.446 95.3232C375.725 125.274 383.98 157.72 383.98 192.278C383.98 226.644 375.629 258.707 358.446 288.465C341.455 317.936 318.128 341.263 288.561 358.35C258.707 375.629 226.26 383.884 191.606 383.884Z" fill="black"/>
<path fill-rule="evenodd" clip-rule="evenodd" d="M186.231 0C186.231 34.5582 177.879 67.0046 160.6 96.9551C143.609 126.426 120.282 149.752 90.8114 166.743C62.5888 183.063 32.3504 191.414 0 192.278V113.658C15.1672 112.794 29.6625 108.666 43.4858 102.235C61.0529 93.9792 74.6842 80.9239 85.3396 64.7967C97.915 45.5977 102.235 22.6548 102.235 0H186.231Z" fill="black"/>
</svg>
