<?xml version="1.0" encoding="UTF-8"?>
<!DOCTYPE svg PUBLIC "-//W3C//DTD SVG 1.1//EN" "http://www.w3.org/Graphics/SVG/1.1/DTD/svg11.dtd">
<!-- Creator: CorelDRAW X7 -->
<svg xmlns="http://www.w3.org/2000/svg" xml:space="preserve" width="6.66666in" height="6.66666in" version="1.1" style="shape-rendering:geometricPrecision; text-rendering:geometricPrecision; image-rendering:optimizeQuality; fill-rule:evenodd; clip-rule:evenodd"
viewBox="0 0 6667 6667"
 xmlns:xlink="http://www.w3.org/1999/xlink">
 <defs>
  <style type="text/css">
   <![CDATA[
    .fil0 {fill:black}
    .fil1 {fill:white}
   ]]>
  </style>
 </defs>
 <g id="Layer_x0020_1">
  <metadata id="CorelCorpID_0Corel-Layer"/>
    <g id="_1698863501776">
   <g>
    <path class="fil1" d="M1564 3568c-42,0 -81,-11 -118,-32 -36,-21 -64,-49 -85,-85 -18,-32 -28,-66 -31,-102l103 0c2,23 8,44 20,63 13,19 30,35 51,45 19,9 39,14 60,14 21,0 42,-5 61,-14 21,-10 38,-26 51,-45 16,-23 21,-51 21,-79 0,-28 -5,-56 -21,-79 -13,-20 -29,-36 -51,-46 -15,-7 -31,-12 -47,-14l0 -96c37,2 72,12 105,31 36,21 65,49 85,85 22,37 32,77 32,119 0,42 -10,81 -32,118 -20,36 -49,64 -85,85 -37,21 -76,32 -119,32z"/>
    <path class="fil1" d="M1558 3097c0,43 -11,83 -32,119 -21,36 -49,65 -85,86 -35,20 -72,30 -111,31l0 -96c18,-1 36,-6 53,-14 21,-10 38,-26 51,-46 15,-24 21,-52 21,-80l103 0z"/>
   </g>
   <path class="fil1" d="M1900 3729l0 -506 -54 0 0 -109 112 0 0 70 31 0c15,-25 35,-45 61,-59 26,-13 57,-20 94,-20 45,0 83,9 114,28 31,19 55,45 71,79 16,35 24,75 24,121 0,47 -8,87 -23,121 -16,34 -39,61 -69,80 -30,18 -66,28 -108,28 -33,0 -61,-6 -85,-19 -24,-13 -43,-31 -56,-54l-3 0 0 240 -109 0zm3139 -168c-51,0 -91,-12 -120,-37 -30,-25 -44,-58 -44,-99 0,-43 15,-76 44,-100 30,-23 72,-35 128,-35l134 0 0 -17c0,-54 -31,-81 -94,-81 -52,0 -84,19 -96,57l-109 0c9,-47 31,-83 67,-107 35,-25 81,-37 138,-37 65,0 114,14 148,43 33,29 50,72 50,127l0 169 52 0 0 109 -112 0 0 -70 -31 0c-15,25 -35,44 -61,58 -25,13 -57,20 -94,20zm16 -84c24,0 45,-5 65,-14 19,-9 34,-21 44,-36 11,-16 17,-33 17,-52l0 -10 -128 0c-49,0 -74,18 -74,55 0,18 7,32 20,42 13,10 32,15 56,15zm-357 76c-29,0 -51,-7 -67,-22 -16,-15 -24,-37 -24,-67l0 -265 -78 0 0 -85 79 0 0 -132 107 0 0 132 106 0 0 85 -105 0 0 268 115 0 0 86 -133 0zm-505 8c-51,0 -91,-12 -120,-37 -30,-25 -44,-58 -44,-99 0,-43 15,-76 44,-100 30,-23 72,-35 128,-35l134 0 0 -17c0,-54 -31,-81 -94,-81 -52,0 -84,19 -96,57l-109 0c9,-47 31,-83 67,-107 35,-25 81,-37 138,-37 65,0 114,14 148,43 33,29 50,72 50,127l0 169 52 0 0 109 -112 0 0 -70 -31 0c-15,25 -35,44 -61,58 -25,13 -57,20 -94,20zm16 -84c24,0 46,-5 65,-14 19,-9 34,-21 45,-36 11,-16 16,-33 16,-52l0 -10 -128 0c-49,0 -74,18 -74,55 0,18 7,32 20,42 14,10 32,15 56,15zm-529 85c-45,0 -83,-10 -114,-28 -31,-19 -55,-46 -71,-80 -17,-35 -25,-75 -25,-121 0,-46 8,-86 24,-121 16,-34 39,-60 69,-79 30,-19 66,-28 108,-28 33,0 62,6 86,18 23,13 42,31 54,54l3 0 0 -239 110 0 0 506 54 0 0 109 -112 0 0 -70 -30 0c-16,25 -37,45 -63,58 -26,14 -56,21 -93,21zm19 -95c36,0 64,-10 84,-29 21,-20 31,-47 31,-81l0 -47c0,-34 -10,-61 -31,-81 -20,-20 -48,-30 -84,-30 -39,0 -68,12 -89,36 -20,23 -31,56 -31,98 0,42 11,75 31,99 21,23 50,35 89,35zm-741 86l0 -330 -55 0 0 -109 112 0 0 70 31 0c17,-25 38,-44 64,-58 26,-14 57,-20 95,-20 60,0 107,16 140,49 33,34 49,78 49,133l0 265 -109 0 0 -245c0,-34 -9,-61 -28,-79 -18,-18 -45,-27 -81,-27 -35,0 -62,9 -81,27 -19,18 -28,45 -28,79l0 245 -109 0zm-319 9c-47,0 -88,-10 -123,-28 -35,-19 -62,-46 -80,-80 -19,-35 -29,-75 -29,-122 0,-47 10,-87 28,-121 19,-34 45,-60 79,-79 35,-18 75,-27 121,-27 44,0 83,8 115,26 32,17 57,42 75,75 18,32 26,71 26,115l0 38 -338 0c4,37 17,65 38,85 22,20 51,30 87,30 27,0 49,-5 66,-15 17,-10 28,-25 35,-45l110 0c-10,46 -34,83 -71,109 -36,26 -83,39 -139,39zm-124 -277l232 0c-5,-30 -17,-53 -36,-69 -19,-16 -44,-24 -76,-24 -32,0 -58,8 -79,24 -20,16 -34,39 -41,69zm-391 182c40,0 69,-12 90,-35 20,-24 30,-57 30,-99 0,-42 -10,-75 -30,-98 -21,-24 -50,-36 -90,-36 -35,0 -63,10 -83,30 -21,20 -32,47 -32,81l0 47c0,34 11,61 32,81 20,19 48,29 83,29z"/>
  </g>
 </g>
</svg>
